<?xml version="1.0" encoding="utf-8"?>
<!-- Generator: Adobe Illustrator 16.0.0, SVG Export Plug-In . SVG Version: 6.00 Build 0)  -->
<!DOCTYPE svg PUBLIC "-//W3C//DTD SVG 1.1//EN" "http://www.w3.org/Graphics/SVG/1.1/DTD/svg11.dtd">
<svg version="1.1" id="Layer_2" xmlns="http://www.w3.org/2000/svg" xmlns:xlink="http://www.w3.org/1999/xlink" x="0px" y="0px"
	 width="500px" height="500px" viewBox="0 0 500 500" enable-background="new 0 0 500 500" xml:space="preserve">
<g id="Layer_3">
</g>
<g>
	<g>
		<g>
			<g>
				<path fill="#58A1D4" d="M88.508,471.151c-2.387,0-4.787-0.799-6.77-2.439c-4.523-3.742-5.157-10.443-1.415-14.967l30.333-36.666
					c3.742-4.523,10.442-5.158,14.966-1.414c4.523,3.742,5.157,10.441,1.415,14.965l-30.333,36.666
					C94.602,469.837,91.566,471.151,88.508,471.151z"/>
			</g>
			<g>
				<path fill="#58A1D4" d="M173.512,471.151c-2.387,0-4.787-0.799-6.77-2.439c-4.523-3.742-5.157-10.443-1.415-14.967
					l30.333-36.666c3.742-4.523,10.442-5.158,14.966-1.414c4.523,3.742,5.157,10.441,1.415,14.965l-30.333,36.666
					C179.606,469.837,176.57,471.151,173.512,471.151z"/>
			</g>
			<g>
				<path fill="#58A1D4" d="M257.517,471.151c-2.387,0-4.788-0.801-6.771-2.441c-4.523-3.742-5.156-10.441-1.414-14.965
					l30.338-36.666c3.741-4.523,10.442-5.156,14.966-1.414s5.156,10.443,1.413,14.967l-30.338,36.666
					C263.61,469.837,260.575,471.151,257.517,471.151z"/>
			</g>
		</g>
	</g>
	<g>
		<path fill="#FFFFFF" d="M299.006,145.284c-46.083,0-83.574,37.488-83.574,83.568c0,46.078,37.491,83.566,83.574,83.566
			c46.079,0,83.567-37.488,83.567-83.566C382.573,182.772,345.085,145.284,299.006,145.284z"/>
		<path fill="#FEC10D" d="M299.006,124.169c-57.726,0-104.689,46.961-104.689,104.684c0,57.721,46.963,104.682,104.689,104.682
			c57.722,0,104.683-46.961,104.683-104.682C403.688,171.13,356.728,124.169,299.006,124.169z M299.006,312.419
			c-46.083,0-83.574-37.488-83.574-83.566c0-46.08,37.491-83.568,83.574-83.568c46.079,0,83.567,37.488,83.567,83.568
			C382.573,274.931,345.085,312.419,299.006,312.419z"/>
		<g>
			<path fill="#FEC10D" d="M488.839,239.407h-56.747c-5.831,0-10.558-4.727-10.558-10.558c0-5.83,4.727-10.558,10.558-10.558h56.747
				c5.831,0,10.558,4.728,10.558,10.558C499.396,234.681,494.67,239.407,488.839,239.407z"/>
		</g>
		<g>
			<path fill="#FEC10D" d="M166.701,239.407h-56.747c-5.831,0-10.558-4.727-10.558-10.558c0-5.83,4.727-10.558,10.558-10.558h56.747
				c5.831,0,10.557,4.728,10.557,10.558C177.258,234.681,172.532,239.407,166.701,239.407z"/>
		</g>
		<g>
			<path fill="#FEC10D" d="M299.396,106.711c-5.831,0-10.558-4.727-10.558-10.558V39.406c0-5.83,4.727-10.558,10.558-10.558
				s10.558,4.728,10.558,10.558v56.747C309.954,101.984,305.228,106.711,299.396,106.711z"/>
		</g>
		<g>
			<path fill="#FEC10D" d="M393.107,145.291c-2.702,0-5.403-1.031-7.465-3.093c-4.123-4.122-4.123-10.807,0-14.93l30.994-30.996
				c4.122-4.123,10.807-4.124,14.931-0.001c4.123,4.123,4.123,10.808,0,14.931l-30.994,30.996
				C398.512,144.26,395.81,145.291,393.107,145.291z"/>
		</g>
		<g>
			<path fill="#FEC10D" d="M424.511,364.925c-2.702,0-5.403-1.029-7.465-3.092l-31.805-31.807c-4.123-4.123-4.123-10.807,0-14.93
				c4.124-4.123,10.807-4.123,14.931,0l31.805,31.807c4.123,4.123,4.123,10.807,0,14.93
				C429.914,363.896,427.212,364.925,424.511,364.925z"/>
		</g>
		<g>
			<path fill="#FEC10D" d="M204.883,145.291c-2.702,0-5.404-1.031-7.465-3.093l-31.339-31.341c-4.123-4.123-4.123-10.808,0-14.93
				c4.123-4.123,10.808-4.123,14.931,0l31.338,31.341c4.123,4.123,4.123,10.808,0,14.93
				C210.287,144.26,207.585,145.291,204.883,145.291z"/>
		</g>
		<g>
			<path fill="#FEC10D" d="M173.54,364.921c-2.702,0-5.404-1.031-7.465-3.092c-4.123-4.123-4.123-10.809,0-14.932l31.807-31.805
				c4.123-4.121,10.808-4.121,14.93,0c4.123,4.123,4.123,10.809,0,14.932l-31.807,31.805
				C178.943,363.89,176.241,364.921,173.54,364.921z"/>
		</g>
	</g>
	<path fill="#FFFFFF" d="M312.684,271.435c-5.784-0.99-9.673-6.479-8.687-12.264c0.48-2.82,0.714-5.338,0.714-7.695
		c0-24.343-19.807-44.147-44.151-44.147c-5.059,0-10.15,0.92-15.135,2.734c-4.667,1.699-9.885-0.06-12.573-4.234
		c-16.582-25.754-44.704-41.13-75.227-41.13c-49.363,0-89.522,40.156-89.522,89.514c0,2.199,0.167,4.48,0.344,6.896
		c0.377,5.15-2.999,9.877-8.007,11.137c-22.713,5.705-38.576,26.018-38.576,49.391c0,28.139,22.877,51.031,50.996,51.031h231.155
		c28.141,0,51.034-22.893,51.034-51.031C355.049,296.745,337.231,275.632,312.684,271.435z"/>
	<path fill="#808083" d="M325.955,252.821c0.011-0.451,0.016-0.898,0.016-1.346c0-36.065-29.344-65.407-65.411-65.407
		c-4.828,0-9.655,0.554-14.422,1.65c-20.889-27.869-53.415-44.28-88.512-44.28c-61.085,0-110.782,49.693-110.782,110.773
		c0,0.025,0,0.051,0,0.076c-27.614,10.623-46.239,37.186-46.239,67.348c0,39.861,32.414,72.291,72.256,72.291h231.155
		c39.863,0,72.294-32.43,72.294-72.291C376.309,289.722,355.647,262.19,325.955,252.821z M304.015,372.667H72.859
		c-28.119,0-50.996-22.893-50.996-51.031c0-23.373,15.863-43.686,38.576-49.391c5.009-1.26,8.385-5.986,8.007-11.137
		c-0.177-2.416-0.344-4.697-0.344-6.896c0-49.357,40.16-89.514,89.522-89.514c30.522,0,58.645,15.376,75.227,41.13
		c2.688,4.175,7.906,5.934,12.573,4.234c4.984-1.814,10.076-2.734,15.135-2.734c24.345,0,44.151,19.805,44.151,44.147
		c0,2.357-0.233,4.875-0.714,7.695c-0.986,5.785,2.902,11.273,8.687,12.264c24.548,4.197,42.365,25.311,42.365,50.201
		C355.049,349.774,332.155,372.667,304.015,372.667z"/>
</g>
</svg>
